HIERARCHY
ROOT SpineBase
{
  OFFSET 0.000000 0.000000 0.000000
  CHANNELS 6 Xposition Yposition Zposition Zrotation Xrotation Yrotation
  JOINT SpineMid
  {
    OFFSET 0.000000 26.194731 0.000000
    CHANNELS 3 Zrotation Xrotation Yrotation
    JOINT SpineShoulder
    {
      OFFSET -0.020486 19.543655 -0.569675
      CHANNELS 3 Zrotation Xrotation Yrotation
      JOINT Neck
      {
        OFFSET -0.017656 6.494639 -0.460524
        CHANNELS 3 Zrotation Xrotation Yrotation
        JOINT Head
        {
          OFFSET 2.562494 10.804838 1.457626
          CHANNELS 3 Zrotation Xrotation Yrotation
          End Site
          {
            OFFSET 0 0 0
          }
        }
      }
      JOINT ShoulderLeft
      {
        OFFSET -11.456500 -1.901037 -7.485198
        CHANNELS 3 Zrotation Xrotation Yrotation
        JOINT ElbowLeft
        {
          OFFSET -4.078860 -21.717235 -3.735317
          CHANNELS 3 Zrotation Xrotation Yrotation
          JOINT WristLeft
          {
            OFFSET 2.175556 -17.969115 -4.837224
            CHANNELS 3 Zrotation Xrotation Yrotation
            JOINT HandLeft
            {
              OFFSET 1.754635 -6.577447 -0.793693
              CHANNELS 3 Zrotation Xrotation Yrotation
              JOINT HandTipLeft
              {
                OFFSET 0.408330 -5.272331 -0.683273
                CHANNELS 3 Zrotation Xrotation Yrotation
                End Site
                {
                  OFFSET 0 0 0
                }
              }
              JOINT ThumbLeft
              {
                OFFSET -1.377355 -0.699556 -3.562521
                CHANNELS 3 Zrotation Xrotation Yrotation
                End Site
                {
                  OFFSET 0 0 0
                }
              }
            }
          }
        }
      }
      JOINT ShoulderRight
      {
        OFFSET 11.866638 -3.110550 5.151999
        CHANNELS 3 Zrotation Xrotation Yrotation
        JOINT ElbowRight
        {
          OFFSET 1.683292 -23.537879 5.014110
          CHANNELS 3 Zrotation Xrotation Yrotation
          JOINT WristRight
          {
            OFFSET 0.966077 -18.956320 -6.720028
            CHANNELS 3 Zrotation Xrotation Yrotation
            JOINT HandRight
            {
              OFFSET -0.683407 -4.416926 -2.174676
              CHANNELS 3 Zrotation Xrotation Yrotation
              JOINT HandTipRight
              {
                OFFSET 0.641870 -5.140410 -2.208264
                CHANNELS 3 Zrotation Xrotation Yrotation
                End Site
                {
                  OFFSET 0 0 0
                }
              }
              JOINT ThumbRight
              {
                OFFSET 1.491175 1.439339 0.073894
                CHANNELS 3 Zrotation Xrotation Yrotation
                End Site
                {
                  OFFSET 0 0 0
                }
              }
            }
          }
        }
      }
    }
  }
  JOINT HipLeft
  {
    OFFSET -4.359182 1.096172 -5.138873
    CHANNELS 3 Zrotation Xrotation Yrotation
    JOINT KneeLeft
    {
      OFFSET -7.261515 -31.333067 -0.877110
      CHANNELS 3 Zrotation Xrotation Yrotation
      JOINT AnkleLeft
      {
        OFFSET -2.941272 -34.444206 7.015424
        CHANNELS 3 Zrotation Xrotation Yrotation
        JOINT FootLeft
        {
          OFFSET 4.350773 -5.845528 1.314321
          CHANNELS 3 Zrotation Xrotation Yrotation
          End Site
          {
            OFFSET 0 0 0
          }
        }
      }
    }
  }
  JOINT HipRight
  {
    OFFSET 3.981981 0.450910 -0.870788
    CHANNELS 3 Zrotation Xrotation Yrotation
    JOINT KneeRight
    {
      OFFSET -0.711418 -27.781876 0.788922
      CHANNELS 3 Zrotation Xrotation Yrotation
      JOINT AnkleRight
      {
        OFFSET -7.010213 -38.893594 6.957929
        CHANNELS 3 Zrotation Xrotation Yrotation
        JOINT FootRight
        {
          OFFSET 1.420645 -4.393713 0.558287
          CHANNELS 3 Zrotation Xrotation Yrotation
          End Site
          {
            OFFSET 0 0 0
          }
        }
      }
    }
  }
}
MOTION
Frames: 13
Frame Time: 0.033333
19.078805 71.610939 367.557881 0.579632 2.956788 -15.390285 0.873831 0.403748 15.443850 0.083743 0.139916 0.075906 12.002153 -0.015430 -2.457220 0.000000 0.000000 0.000000 81.226415 51.244054 -71.252891 66.502123 21.922817 44.953902 -9.733746 -20.506379 38.561977 8.198237 -36.741036 51.653290 0.000000 0.000000 0.000000 0.000000 0.000000 0.000000 93.402711 58.015780 -35.245560 -53.034284 68.893196 -49.713793 -41.924918 -14.296449 -41.857348 -9.420704 12.817983 27.824502 0.000000 0.000000 0.000000 0.000000 0.000000 0.000000 4.684838 -3.118960 15.803326 -4.610489 2.257232 -0.277259 -5.410403 22.272563 18.898832 0.000000 0.000000 0.000000 3.871024 -6.826380 15.883386 -2.466372 4.660676 -0.089132 -43.989742 63.880959 53.936586 0.000000 0.000000 0.000000
19.106660 71.576015 367.556845 0.669383 3.012564 -15.213285 0.845926 0.404967 15.265754 0.102179 0.138386 0.080435 12.156900 -0.035010 -2.494787 0.000000 0.000000 0.000000 81.493645 51.768405 -72.049473 66.585518 21.335223 46.408383 -13.527576 5.934544 15.814398 23.586643 -51.314409 80.140043 0.000000 0.000000 0.000000 0.000000 0.000000 0.000000 92.741548 57.037966 -33.503981 -47.885562 68.483722 -52.935033 -45.855843 -12.843870 -43.879650 -7.033677 14.680154 30.006496 0.000000 0.000000 0.000000 0.000000 0.000000 0.000000 4.534634 -3.231161 15.627543 -4.427115 2.356033 -0.269288 -5.008297 21.987326 18.653277 0.000000 0.000000 0.000000 3.120219 -7.204205 15.638635 -1.759063 4.762443 -0.098903 -50.054704 55.347712 48.821778 0.000000 0.000000 0.000000
19.122603 71.535762 367.570619 0.771975 3.072751 -15.138155 0.821682 0.425880 15.189670 0.130825 0.141583 0.086877 12.058157 -0.162748 -2.473933 0.000000 0.000000 0.000000 81.621256 52.395482 -72.827680 67.567952 20.645422 48.498260 -6.513127 43.449892 -20.995652 76.675928 -48.113427 148.039432 0.000000 0.000000 0.000000 0.000000 0.000000 0.000000 91.319453 55.270806 -30.326013 -47.083123 71.637379 -53.801824 -42.494706 -13.352316 -42.054586 -9.809016 12.750471 28.019369 0.000000 0.000000 0.000000 0.000000 0.000000 0.000000 4.467175 -3.362127 15.566438 -4.345083 2.459494 -0.267024 -4.369880 20.001253 16.843210 0.000000 0.000000 0.000000 2.974712 -7.290100 15.555376 -1.709495 4.745327 -0.099374 -53.754670 46.850438 41.417582 0.000000 0.000000 0.000000
19.145324 71.511005 367.592557 0.930900 3.132605 -15.123177 0.816049 0.454497 15.174561 0.185242 0.145910 0.099005 11.291577 -0.319396 -2.390968 0.000000 0.000000 0.000000 81.894267 52.770751 -73.644700 67.339354 19.918218 49.832692 144.835428 69.771292 105.477403 135.293757 42.758252 152.988746 0.000000 0.000000 0.000000 0.000000 0.000000 0.000000 93.671048 55.875068 -32.494015 -45.012638 72.282063 -57.225868 -39.125694 -14.960168 -41.286092 -12.081486 11.590289 26.606269 0.000000 0.000000 0.000000 0.000000 0.000000 0.000000 4.386700 -3.520519 15.571653 -4.280414 2.538370 -0.262100 -4.487361 17.111110 14.269834 0.000000 0.000000 0.000000 2.862140 -7.329011 15.537549 -1.752185 4.693429 -0.098278 -60.114949 41.455148 38.597435 0.000000 0.000000 0.000000
19.152514 71.479364 367.607688 1.074828 3.200965 -15.113174 0.809108 0.455450 15.164132 0.203033 0.140833 0.106682 10.428303 -0.478047 -2.282824 0.000000 0.000000 0.000000 83.099174 52.455734 -74.742355 66.902641 19.358675 51.093384 100.570525 23.791216 80.333031 -57.971991 69.248613 -11.972201 0.000000 0.000000 0.000000 0.000000 0.000000 0.000000 97.851789 56.763057 -36.289013 -58.311089 76.224921 -51.338940 -21.023367 -14.652480 -28.244881 -23.690262 3.659432 14.718977 0.000000 0.000000 0.000000 0.000000 0.000000 0.000000 4.377032 -3.716744 15.597352 -4.300372 2.678917 -0.273193 -3.861129 11.379176 9.368585 0.000000 0.000000 0.000000 3.050186 -7.363901 15.561235 -2.067850 4.709048 -0.094414 -56.346658 32.030733 25.451811 0.000000 0.000000 0.000000
19.151316 71.450199 367.618925 1.197231 3.242668 -15.073149 0.771540 0.418526 15.121934 0.188813 0.125558 0.108674 9.819304 -0.200495 -2.327012 0.000000 0.000000 0.000000 84.458140 52.105465 -75.890561 66.788953 18.472707 52.811218 74.007994 18.219610 -17.803060 -42.392380 -12.832856 8.188674 0.000000 0.000000 0.000000 0.000000 0.000000 0.000000 100.658986 57.019818 -38.510826 -76.330140 79.878867 -39.257149 -5.969454 -12.719608 -17.668108 -38.922762 -1.912671 -1.221734 0.000000 0.000000 0.000000 0.000000 0.000000 0.000000 4.313394 -3.820720 15.568280 -4.392068 2.773497 -0.293279 -2.352311 3.883899 3.491279 0.000000 0.000000 0.000000 3.330872 -7.350146 15.564195 -2.467772 4.728428 -0.089392 -51.301763 30.149959 21.710114 0.000000 0.000000 0.000000
19.144043 71.426182 367.630224 1.319164 3.264169 -15.032815 0.739082 0.372975 15.079701 0.177658 0.113720 0.110921 8.953384 0.225572 -2.386703 0.000000 0.000000 0.000000 85.710698 51.565172 -76.785640 67.414287 18.494922 54.114769 88.457329 -4.074192 -172.082035 55.628807 -30.730302 155.839218 0.000000 0.000000 0.000000 0.000000 0.000000 0.000000 104.055485 57.438473 -41.543304 -86.255577 81.335401 -33.216415 -0.379655 -12.045051 -14.031168 -49.292018 -3.052356 -11.808365 0.000000 0.000000 0.000000 0.000000 0.000000 0.000000 4.163564 -3.812132 15.503890 -4.251677 2.560704 -0.247062 -0.924167 8.451803 7.185003 0.000000 0.000000 0.000000 2.446561 -7.550660 15.426872 -1.695642 4.666185 -0.098696 -42.214548 37.811938 26.247444 0.000000 0.000000 0.000000
19.130518 71.416572 367.624991 1.387381 3.262048 -15.078601 0.637228 0.263434 15.119956 0.089979 0.079506 0.100088 8.811267 0.781793 -2.506716 0.000000 0.000000 0.000000 86.492580 51.053953 -77.004128 68.653694 18.912577 54.835705 74.550690 -24.687149 151.884802 44.408074 -6.216782 -103.728100 0.000000 0.000000 0.000000 0.000000 0.000000 0.000000 106.669681 57.346238 -43.260535 -96.513707 82.406034 -25.867785 1.572182 -8.116379 -10.610284 -52.144806 -4.689135 -22.135830 0.000000 0.000000 0.000000 0.000000 0.000000 0.000000 4.157930 -3.787886 15.542547 -4.528656 2.567669 -0.278275 -1.635833 3.860350 3.511253 0.000000 0.000000 0.000000 2.274057 -7.476137 15.451523 -1.612375 4.551387 -0.098396 -34.581497 45.168496 29.695586 0.000000 0.000000 0.000000
19.114759 71.412117 367.613681 1.391494 3.237333 -15.137429 0.493392 0.100865 15.170860 -0.037430 0.037345 0.080451 9.361611 1.516021 -2.723920 0.000000 0.000000 0.000000 89.231268 50.423486 -79.029316 69.426194 18.342699 57.821897 54.671865 -35.238366 120.151375 30.290829 -3.804387 -30.442857 0.000000 0.000000 0.000000 0.000000 0.000000 0.000000 108.556004 57.004289 -44.027729 -94.615051 82.564317 -28.620308 -2.230884 -3.799174 -9.740896 -43.818681 -5.369502 -17.690601 0.000000 0.000000 0.000000 0.000000 0.000000 0.000000 4.187872 -3.766715 15.604659 -4.058908 2.298262 -0.169865 -2.783624 5.403319 4.270802 0.000000 0.000000 0.000000 2.321133 -7.318263 15.510577 -1.695765 4.436575 -0.096201 -27.169724 54.334611 33.674674 0.000000 0.000000 0.000000
19.109165 71.417739 367.602259 1.394904 3.176607 -15.226712 0.386285 -0.024594 15.254354 -0.112837 0.021103 0.067551 9.803009 2.155353 -2.924313 0.000000 0.000000 0.000000 90.535891 50.369458 -80.188310 70.776189 18.429992 59.773211 40.707249 -39.339329 103.881730 26.453708 -1.905050 -15.787718 0.000000 0.000000 0.000000 0.000000 0.000000 0.000000 107.475405 56.080331 -41.743379 -95.336462 83.259411 -26.782901 -6.178577 -1.655372 -10.430689 -37.432879 -5.124147 -11.980905 0.000000 0.000000 0.000000 0.000000 0.000000 0.000000 4.278556 -3.776063 15.719901 -3.772369 2.098488 -0.096834 -3.842155 17.199415 13.597982 0.000000 0.000000 0.000000 2.546608 -7.057003 15.618932 -1.973090 4.306123 -0.092226 -20.267000 62.868717 36.390174 0.000000 0.000000 0.000000
19.104465 71.433174 367.583732 1.351786 3.096513 -15.213711 0.287149 -0.108657 15.236015 -0.174575 0.018583 0.054822 10.492625 2.490945 -3.061300 0.000000 0.000000 0.000000 92.320598 50.355658 -81.899576 72.712565 18.420842 62.971050 19.129360 -36.953872 75.935475 16.549441 -4.844551 9.514600 0.000000 0.000000 0.000000 0.000000 0.000000 0.000000 108.168006 55.907972 -41.930736 -72.568809 82.270137 -47.082231 -13.488678 -3.260035 -15.846893 -27.849432 -3.458140 -0.824681 0.000000 0.000000 0.000000 0.000000 0.000000 0.000000 4.364290 -3.815925 15.744201 -3.349143 1.932402 -0.018776 -7.130497 27.410183 22.650464 0.000000 0.000000 0.000000 2.339386 -7.193170 15.585607 -1.696528 4.461998 -0.096469 -4.106800 71.432806 31.584116 0.000000 0.000000 0.000000
19.078013 71.432492 367.564130 1.259876 2.985261 -15.241167 0.204126 -0.177524 15.259056 -0.216243 0.032185 0.042799 11.295717 2.891287 -3.239423 0.000000 0.000000 0.000000 93.774831 51.284214 -84.115937 74.060926 18.365218 65.679685 7.124962 -26.417040 53.029388 12.460198 -13.413559 28.544346 0.000000 0.000000 0.000000 0.000000 0.000000 0.000000 113.637273 55.982609 -46.091361 -43.286804 78.142305 -74.236425 -24.582629 -5.785204 -25.298312 -17.024591 1.544282 13.314885 0.000000 0.000000 0.000000 0.000000 0.000000 0.000000 4.406034 -3.741364 15.780836 -2.935628 1.665299 0.065015 -9.323967 29.334251 24.476311 0.000000 0.000000 0.000000 2.611849 -7.129368 15.641620 -1.878503 4.584435 -0.095675 -1.431936 75.059207 31.856418 0.000000 0.000000 0.000000
19.057371 71.458457 367.544162 1.197745 2.871706 -15.330584 0.144753 -0.229103 15.345508 -0.215220 0.039651 0.037329 11.917729 3.524021 -3.504193 0.000000 0.000000 0.000000 95.683830 51.678671 -86.497767 75.767448 18.157618 69.244360 2.726324 -12.270864 34.180096 12.964461 -24.026353 51.537288 0.000000 0.000000 0.000000 0.000000 0.000000 0.000000 117.873799 56.260127 -50.078123 -32.674635 73.483985 -82.587274 -35.062901 -8.559216 -35.635830 -10.953989 7.889043 24.198627 0.000000 0.000000 0.000000 0.000000 0.000000 0.000000 4.359898 -3.630838 15.861992 -2.550655 1.365833 0.144098 -15.875892 39.857757 37.352966 0.000000 0.000000 0.000000 2.884766 -7.004418 15.757574 -2.099170 4.651827 -0.093595 -17.384315 76.181111 45.156934 0.000000 0.000000 0.000000
